<!DOCTYPE svg PUBLIC "-//W3C//DTD SVG 1.1//EN" "http://www.w3.org/Graphics/SVG/1.1/DTD/svg11.dtd">
<!-- Uploaded to: SVG Repo, www.svgrepo.com, Transformed by: SVG Repo Mixer Tools -->
<svg height="800px" width="800px" version="1.1" id="Layer_1" xmlns="http://www.w3.org/2000/svg" xmlns:xlink="http://www.w3.org/1999/xlink" viewBox="0 0 503.467 503.467" xml:space="preserve" fill="#000000">
<g id="SVGRepo_bgCarrier" stroke-width="0"/>
<g id="SVGRepo_tracerCarrier" stroke-linecap="round" stroke-linejoin="round"/>
<g id="SVGRepo_iconCarrier"> <g transform="translate(13 1)"> <path style="fill:#ECF4F7;" d="M144.44,139.8h-8.533c-14.507,0-25.6-11.093-25.6-25.6V28.867c0-14.507,11.093-25.6,25.6-25.6h25.6 V37.4h51.2V3.267h51.2V37.4h51.2V3.267h25.6c14.507,0,25.6,11.093,25.6,25.6V114.2c0,14.507-11.093,25.6-25.6,25.6h-8.533 c0,0-17.067,42.667-17.067,102.4s34.133,119.467,34.133,153.6c0,17.067-17.067,34.133-34.133,34.133h-153.6 c-17.067,0-34.133-17.067-34.133-34.133c0-34.133,34.133-93.867,34.133-153.6c0-26.453-3.413-50.347-7.68-68.267L144.44,139.8z"/> <path style="fill:#AAB1BA;" d="M383.373,464.067V498.2H93.24v-34.133c0-17.067,17.067-34.133,34.133-34.133h34.133h153.6h34.133 C366.307,429.933,383.373,447,383.373,464.067"/> </g> <path style="fill:#51565F;" d="M396.373,503.467H106.24c-2.56,0-4.267-1.707-4.267-4.267v-34.133c0-19.627,18.773-38.4,38.4-38.4 h11.093c-9.387-7.68-15.36-18.773-15.36-29.867c0-15.36,5.973-34.987,13.653-57.173c9.387-29.013,20.48-62.293,20.48-96.427 c0-22.187-2.56-45.227-6.827-67.413c-0.853-2.56,0.853-4.267,3.413-5.12c2.56-0.853,4.267,0.853,5.12,3.413 c5.12,23.04,7.68,46.08,7.68,69.12c0,34.987-11.093,68.267-20.48,98.987c-6.827,22.187-13.653,40.96-13.653,54.613 c0,14.507,15.36,29.867,29.867,29.867c2.56,0,4.267,1.707,4.267,4.267c0,2.56-1.707,4.267-4.267,4.267h-34.133 c-14.507,0-29.867,15.36-29.867,29.867v29.867h281.6v-29.867c0-14.507-15.36-29.867-29.867-29.867h-153.6 c-2.56,0-4.267-1.707-4.267-4.267c0-2.56,1.707-4.267,4.267-4.267H328.96c14.507,0,29.867-15.36,29.867-29.867 c0-13.653-5.973-33.28-13.653-54.613c-9.387-29.867-20.48-64-20.48-98.987c0-59.733,17.067-102.4,17.067-104.107 c0.853-1.707,2.56-2.56,4.267-2.56h8.533c11.947,0,21.333-9.387,21.333-21.333V29.867c0-11.947-9.387-21.333-21.333-21.333h-21.333 V38.4c0,2.56-1.707,4.267-4.267,4.267h-51.2c-2.56,0-4.267-1.707-4.267-4.267V8.533h-42.667V38.4c0,2.56-1.707,4.267-4.267,4.267 h-51.2c-2.56,0-4.267-1.707-4.267-4.267V8.533H149.76c-11.947,0-21.333,9.387-21.333,21.333V115.2 c0,11.947,9.387,21.333,21.333,21.333h162.133c2.56,0,4.267,1.707,4.267,4.267c0,2.56-1.707,4.267-4.267,4.267H149.76 c-16.213,0-29.867-13.653-29.867-29.867V29.867C119.893,13.653,133.547,0,149.76,0h25.6c2.56,0,4.267,1.707,4.267,4.267v29.867 h42.667V4.267C222.293,1.707,224,0,226.56,0h51.2c2.56,0,4.267,1.707,4.267,4.267v29.867h42.667V4.267 c0-2.56,1.707-4.267,4.267-4.267h25.6c16.213,0,29.867,13.653,29.867,29.867V115.2c0,16.213-13.653,29.867-29.867,29.867h-5.973 c-3.413,10.24-15.36,48.64-15.36,98.133c0,33.28,11.093,66.56,20.48,96.427c7.68,23.04,13.653,41.813,13.653,57.173 c0,11.093-6.827,22.187-15.36,29.867h11.093c19.627,0,38.4,18.773,38.4,38.4V499.2C400.64,501.76,398.933,503.467,396.373,503.467z"/> </g>
</svg>